# xmcd CD database file
#
# Track frame offsets:
#	150
#	17308
#	33626
#	46847
#	63195
#	79627
#	98741
#	112489
#	128116
#	144017
#	170016
#	186666
#	203458
#	222194
#	250153
#	267327
#	283291
#	297521
#	311905
#	325444
#
# Disc length: 4536 seconds
#
# Revision: 3
# Processed by: cddbd v1.5PL3 Copyright (c) Steve Scherf et al.
# Submitted via: NeoAudio 9.9.9
#
DISCID=3211b614
DTITLE=diaforoi - Τα Τραγούδια Της Ηπείρου
DYEAR=2003
DGENRE=Blues
TTITLE0=Ψηλά στη Κωστηλάτα
TTITLE1=Μάγια Μου'χεις Καμωμένα
TTITLE2=Ο Μενούσης
TTITLE3=Ξενητεμένο μου Πουλί
TTITLE4=Κύρα Γιώργαινα
TTITLE5=Μπιρμπίλης
TTITLE6=Δέλβινο
TTITLE7=Μωρή Κοντούλα Λεμονιά
TTITLE8=Τα Μάγια
TTITLE9=Βασίλω Αρχόντισσα
TTITLE10=Τρία Μπαϊράκια
TTITLE11=Ξύπνα Περδικομάτα μου
TTITLE12=Οι κλέφτες
TTITLE13=Παιδιά Της Σαμαρίνας
TTITLE14=Ο Γιατρός
TTITLE15=Μαρία λέν την Παναγιά
TTITLE16=Σταφύλι Μοσχοστάφυλο
TTITLE17=Δεροπολίτισσα
TTITLE18=Σαμαντάκας
TTITLE19=Κουγκο Το Ανέμο
EXTD=YEAR: 2003
EXTT0=
EXTT1=
EXTT2=
EXTT3=
EXTT4=
EXTT5=
EXTT6=
EXTT7=
EXTT8=
EXTT9=
EXTT10=
EXTT11=
EXTT12=
EXTT13=
EXTT14=
EXTT15=
EXTT16=
EXTT17=
EXTT18=
EXTT19=
PLAYORDER=
